<svg xmlns="http://www.w3.org/2000/svg" width="61.955" height="61.955" viewBox="0 0 61.955 61.955">
  <path id="Search_Icon" d="M64.169,67.905,41.538,45.274a18.962,18.962,0,0,1-6.023,3.485A21.3,21.3,0,0,1,28.2,50.007a21.425,21.425,0,0,1-15.747-6.454A21.224,21.224,0,0,1,6,27.979,21.224,21.224,0,0,1,12.454,12.4,21.324,21.324,0,0,1,28.115,5.95,21.082,21.082,0,0,1,43.647,12.4a21.3,21.3,0,0,1,6.411,15.575,21.464,21.464,0,0,1-1.2,7.142,21.841,21.841,0,0,1-3.614,6.454L67.955,64.119ZM28.115,44.844A16.1,16.1,0,0,0,39.989,39.9a16.316,16.316,0,0,0,4.9-11.918,16.316,16.316,0,0,0-4.9-11.918,16.1,16.1,0,0,0-11.875-4.948,16.345,16.345,0,0,0-12,4.948,16.245,16.245,0,0,0-4.948,11.918A16.245,16.245,0,0,0,16.111,39.9,16.345,16.345,0,0,0,28.115,44.844Z" transform="translate(-6 -5.95)"/>
</svg>
